<svg width="17" height="19" viewBox="0 0 17 19" fill="none" xmlns="http://www.w3.org/2000/svg">
<path d="M16.3657 13.5235H14.817C14.468 13.5235 14.1835 13.819 14.1835 14.1824V16.0708H2.81648V14.1824C2.81648 13.819 2.53197 13.5235 2.18215 13.5235H0.63344C0.284511 13.5235 0 13.819 0 14.1824V18.342C0 18.7045 0.284511 19 0.63344 19H16.3657C16.7155 19 17 18.7045 17 18.342V14.1824C17 13.819 16.7155 13.5235 16.3657 13.5235Z" fill="#FDB412"/>
<path d="M6.07051 2.77589H10.9287C11.3018 2.77589 11.6051 2.46085 11.6051 2.07332V0.701639C11.6051 0.31504 11.3018 0 10.9287 0H6.07051C5.69832 0 5.39502 0.31504 5.39502 0.701639V2.07332C5.39502 2.46085 5.69832 2.77589 6.07051 2.77589Z" fill="#FDB412"/>
<path d="M4.89043 11.2485L7.70423 14.674C7.88407 14.8924 8.17394 15.0178 8.49961 15.0178C8.66245 15.0178 8.81723 14.9862 8.95232 14.9277C9.08832 14.8692 9.20642 14.7827 9.29589 14.674L14.9226 7.82396C15.1024 7.60464 15.1427 7.32398 15.0317 7.07306C14.8913 6.7571 14.5361 6.55264 14.1263 6.55264H11.5595V4.12154C11.5595 3.75817 11.2758 3.46265 10.926 3.46265H5.98911C5.64018 3.46265 5.35567 3.75817 5.35567 4.12154V6.55264H2.8738C2.46403 6.55264 2.10884 6.7571 1.96838 7.07306C1.85743 7.32398 1.8977 7.60464 2.07753 7.82396L4.89043 11.2485Z" fill="#FDB412"/>
</svg>
