<svg width="51" height="51" viewBox="0 0 51 51" fill="none" xmlns="http://www.w3.org/2000/svg">
<rect width="51" height="51" rx="24" fill="#FDB412"/>
<path d="M11.5912 17.4545H15.0358L18.3526 23.7188H18.4946L21.8114 17.4545H25.256L19.9506 26.858V32H16.8966V26.858L11.5912 17.4545ZM28.1357 32V17.4545H33.8743C34.9775 17.4545 35.9174 17.6652 36.6939 18.0866C37.4704 18.5033 38.0623 19.0833 38.4695 19.8267C38.8814 20.5653 39.0874 21.4176 39.0874 22.3835C39.0874 23.3494 38.8791 24.2017 38.4624 24.9403C38.0457 25.679 37.442 26.2543 36.6513 26.6662C35.8653 27.0781 34.9136 27.2841 33.7962 27.2841H30.1385V24.8196H33.299C33.8909 24.8196 34.3786 24.7178 34.7621 24.5142C35.1504 24.3059 35.4392 24.0194 35.6286 23.6548C35.8227 23.2855 35.9198 22.8617 35.9198 22.3835C35.9198 21.9006 35.8227 21.4792 35.6286 21.1193C35.4392 20.7547 35.1504 20.473 34.7621 20.2741C34.3739 20.0705 33.8814 19.9688 33.2848 19.9688H31.211V32H28.1357Z" fill="black" fill-opacity="0.55"/>
</svg>
