<svg width="24" height="21" viewBox="0 0 24 21" fill="none" xmlns="http://www.w3.org/2000/svg">
<path d="M19.6093 13.4625H17.1577C16.9456 13.4625 16.7577 13.6 16.6934 13.8025C16.0433 15.852 14.1598 17.2296 12.0079 17.2296C10.1171 17.2296 8.42368 16.1562 7.60403 14.4971H11.1386C11.336 14.4971 11.5137 14.378 11.589 14.1966C11.6643 14.0146 11.6226 13.8047 11.4829 13.6658L6.15775 8.33986C5.97495 8.15706 5.65104 8.15706 5.46897 8.33986L0.143043 13.6658C0.00338729 13.8047 -0.0382901 14.0146 0.0370217 14.1966C0.113065 14.378 0.290011 14.4971 0.48743 14.4971H4.03951C5.01125 18.0426 8.30011 20.5769 12.0079 20.5769C15.8788 20.5769 19.2766 17.8328 20.086 14.0511C20.1167 13.9078 20.0809 13.7579 19.9881 13.6431C19.8952 13.5291 19.7563 13.4625 19.6093 13.4625Z" fill="#FDB412"/>
<path d="M23.9628 6.3803C23.8875 6.19823 23.7099 6.07978 23.5132 6.07978H19.9604C18.9893 2.53355 15.6998 0 11.9927 0C8.12105 0 4.72398 2.74413 3.91456 6.52507C3.88385 6.66911 3.91968 6.81901 4.01254 6.93307C4.10467 7.04786 4.24359 7.1144 4.39129 7.1144H6.84294C7.05499 7.1144 7.2429 6.97694 7.30651 6.7744C7.95727 4.72417 9.84079 3.34662 11.9927 3.34662C13.8835 3.34662 15.5762 4.42073 16.3958 6.07978H12.8613C12.6646 6.07978 12.4869 6.19823 12.4116 6.3803C12.3363 6.56236 12.378 6.77148 12.5176 6.91113L17.8428 12.2371C17.9379 12.3321 18.0629 12.3796 18.1872 12.3796C18.3115 12.3796 18.4366 12.3321 18.5316 12.2371L23.8576 6.91113C23.9972 6.77148 24.0382 6.56236 23.9628 6.3803Z" fill="#FDB412"/>
</svg>
