<svg width="120" height="120" viewBox="0 0 120 120" fill="none" xmlns="http://www.w3.org/2000/svg">
<circle cx="60" cy="60" r="60" fill="#FDB412"/>
<path d="M15.8142 66V48.5455H22.7006C24.0245 48.5455 25.1523 48.7983 26.0841 49.304C27.0159 49.804 27.7262 50.5 28.2148 51.392C28.7091 52.2784 28.9563 53.3011 28.9563 54.4602C28.9563 55.6193 28.7063 56.642 28.2063 57.5284C27.7063 58.4148 26.9818 59.1051 26.033 59.5994C25.0898 60.0937 23.9478 60.3409 22.6068 60.3409H18.2176V57.3835H22.0103C22.7205 57.3835 23.3057 57.2614 23.7659 57.017C24.2318 56.767 24.5784 56.4233 24.8057 55.9858C25.0387 55.5426 25.1551 55.0341 25.1551 54.4602C25.1551 53.8807 25.0387 53.375 24.8057 52.9432C24.5784 52.5057 24.2318 52.1676 23.7659 51.929C23.3 51.6847 22.7091 51.5625 21.9932 51.5625H19.5046V66H15.8142ZM32.7251 66V52.9091H36.245V55.1932H36.3814C36.62 54.3807 37.0206 53.767 37.5831 53.3523C38.1456 52.9318 38.7933 52.7216 39.5263 52.7216C39.7081 52.7216 39.9041 52.733 40.1143 52.7557C40.3245 52.7784 40.5092 52.8097 40.6683 52.8494V56.071C40.4978 56.0199 40.262 55.9744 39.9609 55.9347C39.6598 55.8949 39.3842 55.875 39.1342 55.875C38.6001 55.875 38.1228 55.9915 37.7024 56.2244C37.2876 56.4517 36.9581 56.7699 36.7138 57.179C36.4751 57.5881 36.3558 58.0597 36.3558 58.5938V66H32.7251ZM49.2908 66.2557C47.967 66.2557 46.8221 65.9744 45.8562 65.4119C44.8959 64.8437 44.1545 64.054 43.6317 63.0426C43.109 62.0256 42.8476 60.8466 42.8476 59.5057C42.8476 58.1534 43.109 56.9716 43.6317 55.9602C44.1545 54.9432 44.8959 54.1534 45.8562 53.5909C46.8221 53.0227 47.967 52.7386 49.2908 52.7386C50.6147 52.7386 51.7567 53.0227 52.717 53.5909C53.6829 54.1534 54.4272 54.9432 54.9499 55.9602C55.4726 56.9716 55.734 58.1534 55.734 59.5057C55.734 60.8466 55.4726 62.0256 54.9499 63.0426C54.4272 64.054 53.6829 64.8437 52.717 65.4119C51.7567 65.9744 50.6147 66.2557 49.2908 66.2557ZM49.3079 63.4432C49.9101 63.4432 50.413 63.2727 50.8164 62.9318C51.2198 62.5852 51.5238 62.1136 51.7283 61.517C51.9386 60.9205 52.0437 60.2415 52.0437 59.4801C52.0437 58.7188 51.9386 58.0398 51.7283 57.4432C51.5238 56.8466 51.2198 56.375 50.8164 56.0284C50.413 55.6818 49.9101 55.5085 49.3079 55.5085C48.6999 55.5085 48.1886 55.6818 47.7738 56.0284C47.3647 56.375 47.055 56.8466 46.8448 57.4432C46.6403 58.0398 46.538 58.7188 46.538 59.4801C46.538 60.2415 46.6403 60.9205 46.8448 61.517C47.055 62.1136 47.3647 62.5852 47.7738 62.9318C48.1886 63.2727 48.6999 63.4432 49.3079 63.4432ZM59.5348 52.9091H63.1655V66.6477C63.1655 67.6591 62.9666 68.4773 62.5689 69.1023C62.1712 69.7273 61.6001 70.1847 60.8558 70.4744C60.1172 70.7642 59.2337 70.9091 58.2053 70.9091C58.0803 70.9091 57.9609 70.9063 57.8473 70.9006C57.728 70.9006 57.603 70.8977 57.4723 70.892V68.054C57.5689 68.0597 57.6541 68.0625 57.728 68.0625C57.7962 68.0682 57.87 68.071 57.9496 68.071C58.5348 68.071 58.9439 67.946 59.1768 67.696C59.4155 67.4517 59.5348 67.0824 59.5348 66.5881V52.9091ZM61.3416 51.2216C60.8075 51.2216 60.3473 51.0426 59.9609 50.6847C59.5746 50.321 59.3814 49.8864 59.3814 49.3807C59.3814 48.8807 59.5746 48.4517 59.9609 48.0938C60.3473 47.7301 60.8075 47.5483 61.3416 47.5483C61.8871 47.5483 62.3501 47.7301 62.7308 48.0938C63.1172 48.4517 63.3104 48.8807 63.3104 49.3807C63.3104 49.8864 63.1172 50.321 62.7308 50.6847C62.3501 51.0426 61.8871 51.2216 61.3416 51.2216ZM73.4798 66.2557C72.1332 66.2557 70.9741 65.983 70.0025 65.4375C69.0366 64.8864 68.2923 64.108 67.7695 63.1023C67.2468 62.0909 66.9855 60.8949 66.9855 59.5142C66.9855 58.1676 67.2468 56.9858 67.7695 55.9688C68.2923 54.9517 69.0281 54.1591 69.9769 53.5909C70.9315 53.0227 72.0508 52.7386 73.3349 52.7386C74.1985 52.7386 75.0025 52.8778 75.7468 53.1562C76.4968 53.429 77.1502 53.8409 77.707 54.392C78.2695 54.9432 78.707 55.6364 79.0195 56.4716C79.332 57.3011 79.4883 58.2727 79.4883 59.3864V60.3835H68.4343V58.1335H76.0707C76.0707 57.6108 75.957 57.1477 75.7298 56.7443C75.5025 56.3409 75.1872 56.0256 74.7838 55.7983C74.386 55.5653 73.923 55.4489 73.3945 55.4489C72.8434 55.4489 72.3548 55.5767 71.9286 55.8324C71.5082 56.0824 71.1786 56.4205 70.94 56.8466C70.7014 57.267 70.5792 57.7358 70.5735 58.2528V60.392C70.5735 61.0398 70.6928 61.5994 70.9315 62.071C71.1758 62.5426 71.5195 62.9062 71.9627 63.1619C72.4059 63.4176 72.9315 63.5455 73.5394 63.5455C73.9428 63.5455 74.3122 63.4886 74.6474 63.375C74.9826 63.2614 75.2695 63.0909 75.5082 62.8636C75.7468 62.6364 75.9286 62.358 76.0536 62.0284L79.4116 62.25C79.2411 63.0568 78.8917 63.7614 78.3633 64.3636C77.8406 64.9602 77.1644 65.4261 76.3349 65.7614C75.511 66.0909 74.5593 66.2557 73.4798 66.2557ZM89.2124 66.2557C87.8715 66.2557 86.7181 65.9716 85.7522 65.4034C84.7919 64.8295 84.0533 64.0341 83.5362 63.017C83.0249 62 82.7692 60.8295 82.7692 59.5057C82.7692 58.1648 83.0277 56.9886 83.5448 55.9773C84.0675 54.9602 84.809 54.1676 85.7692 53.5994C86.7294 53.0256 87.8715 52.7386 89.1953 52.7386C90.3374 52.7386 91.3374 52.946 92.1953 53.3608C93.0533 53.7756 93.7323 54.358 94.2323 55.108C94.7323 55.858 95.0078 56.7386 95.059 57.75H91.6328C91.5362 57.0966 91.2806 56.571 90.8658 56.1733C90.4567 55.7699 89.9198 55.5682 89.255 55.5682C88.6925 55.5682 88.201 55.7216 87.7806 56.0284C87.3658 56.3295 87.0419 56.7699 86.809 57.3494C86.576 57.929 86.4595 58.6307 86.4595 59.4545C86.4595 60.2898 86.5732 61 86.8005 61.5852C87.0334 62.1705 87.3601 62.6165 87.7806 62.9233C88.201 63.2301 88.6925 63.3835 89.255 63.3835C89.6698 63.3835 90.0419 63.2983 90.3715 63.1278C90.7067 62.9574 90.9823 62.7102 91.1982 62.3864C91.4198 62.0568 91.5647 61.6619 91.6328 61.2017H95.059C95.0022 62.2017 94.7294 63.0824 94.2408 63.8438C93.7578 64.5994 93.0902 65.1903 92.238 65.6165C91.3857 66.0426 90.3772 66.2557 89.2124 66.2557ZM105.787 52.9091V55.6364H97.9031V52.9091H105.787ZM99.6929 49.7727H103.324V61.9773C103.324 62.3125 103.375 62.5739 103.477 62.7614C103.579 62.9432 103.721 63.071 103.903 63.1449C104.091 63.2187 104.307 63.2557 104.551 63.2557C104.721 63.2557 104.892 63.2415 105.062 63.2131C105.233 63.179 105.363 63.1534 105.454 63.1364L106.025 65.8381C105.843 65.8949 105.588 65.9602 105.258 66.0341C104.929 66.1136 104.528 66.1619 104.057 66.179C103.182 66.2131 102.414 66.0966 101.755 65.8295C101.102 65.5625 100.593 65.1477 100.23 64.5852C99.8662 64.0227 99.6872 63.3125 99.6929 62.4545V49.7727Z" fill="black" fill-opacity="0.55"/>
</svg>
